<svg width="27" height="24" viewBox="0 0 27 24" fill="none" xmlns="http://www.w3.org/2000/svg">
<path d="M22.9682 1.27421C22.5935 1.01203 21.4462 0.320801 20.0882 0.320801C18.2852 0.320801 16.0374 1.56024 13.3681 3.96761C13.1808 3.80076 13.0403 3.65775 12.97 3.58624C10.0666 0.98819 8.0529 0.106283 5.78165 0.416142C3.11235 0.821343 0.255737 4.03911 0.255737 11.9048C0.255737 19.6512 2.76113 22.1063 3.60407 22.7022C3.62748 22.726 3.6509 22.726 3.6509 22.7498C3.79139 22.8452 5.07921 23.7748 6.648 23.7748C8.45095 23.7748 10.7222 22.5353 13.3915 20.1041C13.6256 20.3186 13.8364 20.5093 13.9535 20.6285C16.4354 22.8213 18.2618 23.7509 20.1584 23.7509C20.4394 23.7509 20.7438 23.7271 21.0482 23.6794C24.3731 23.2027 26.6209 18.3403 26.6209 11.5472C26.5741 3.51473 23.7877 1.65558 22.9682 1.27421ZM20.0882 2.41831C21.0013 2.41831 21.8677 3.03803 21.8677 3.03803C21.9379 3.0857 22.0082 3.1572 22.055 3.18104C22.2657 3.37172 22.5935 3.75309 22.8745 4.42048C22.8745 4.44431 22.8745 4.44431 22.8979 4.46815C22.9682 4.63499 23.0384 4.80184 23.0853 5.01636V5.04019C23.1321 5.23088 23.1789 5.42156 23.2257 5.63608C23.2257 5.65991 23.2492 5.70758 23.2492 5.73142C23.296 5.94594 23.3194 6.18429 23.3428 6.44648C23.3428 6.49415 23.3428 6.54182 23.3662 6.58949C23.3897 6.85168 23.4131 7.1377 23.4131 7.42373C23.4131 8.52015 23.1789 9.30672 22.7574 9.73575C22.3594 10.1171 21.9145 10.1171 21.9145 10.1171C21.8911 10.1171 21.8677 10.1171 21.8443 10.1171C20.1584 10.1171 18.3789 8.90152 14.9837 5.5169L14.89 5.42156C17.7467 2.82351 19.3623 2.41831 20.0882 2.41831ZM6.62459 21.7011C5.89873 21.7011 5.21969 21.3197 4.93872 21.129C4.9153 21.1052 4.89189 21.1052 4.86847 21.0814C4.79823 21.0337 3.39333 20.0088 3.39333 16.7195C3.39333 15.6231 3.62748 14.8365 4.04895 14.4075C4.447 14.0261 4.89189 14.0261 4.89189 14.0261C4.9153 14.0261 4.93872 14.0261 4.96213 14.0261C5.47726 14.0261 6.0158 14.1453 6.60117 14.4075C7.88899 14.9795 9.45779 16.2666 11.7056 18.5072C11.7056 18.5072 11.7759 18.5787 11.8929 18.6978C8.98949 21.2959 7.37386 21.7011 6.62459 21.7011ZM20.7204 21.6534C19.3857 21.8441 17.9574 21.4866 15.2647 19.0792C15.0305 18.8647 14.2344 18.0781 13.6491 17.5061C13.6022 17.4584 13.5554 17.4107 13.5086 17.3631L13.4852 17.3392C13.3212 17.1724 13.1808 17.0532 13.1339 17.0055C9.9495 13.8116 7.5846 11.9524 5.00896 11.9286C4.72798 11.9286 3.62748 11.9286 2.69089 12.8343C2.57381 12.9535 2.45674 13.0727 2.36308 13.1919L2.33966 13.2157C2.31625 12.7867 2.31625 12.3576 2.31625 11.8809C2.31625 5.75526 4.21285 2.752 6.06263 2.48982C7.39728 2.29913 8.849 2.6805 11.612 5.15937C11.7524 5.30238 12.8061 6.3273 12.9934 6.49415L13.0169 6.51799L13.4852 6.99469C16.7632 10.284 19.175 12.1908 21.7506 12.2146C21.774 12.2146 21.7974 12.2146 21.8209 12.2146C21.8209 12.2146 21.8209 12.2146 21.8443 12.2146C21.8677 12.2146 21.9145 12.2146 21.9613 12.2146C21.9848 12.2146 22.0082 12.2146 22.0082 12.2146C22.055 12.2146 22.1018 12.2146 22.1721 12.1908C22.1955 12.1908 22.2189 12.1908 22.2423 12.1908C22.2891 12.1908 22.3594 12.167 22.4296 12.167C22.4531 12.167 22.4999 12.1431 22.5233 12.1431C22.5935 12.1193 22.6404 12.1193 22.7106 12.0955C22.7574 12.0716 22.8043 12.0716 22.8511 12.0478C22.9214 12.0239 22.9682 12.0001 23.0384 11.9763C23.0853 11.9524 23.1555 11.9286 23.2023 11.9048C23.2726 11.8809 23.3194 11.8571 23.3897 11.8094C23.4599 11.7618 23.5301 11.7379 23.6004 11.6903C23.6472 11.6664 23.694 11.6426 23.7409 11.5949C23.8579 11.4996 23.975 11.4281 24.0921 11.3089C24.2326 11.1897 24.3497 11.0467 24.4667 10.8798C24.4901 10.856 24.4901 10.856 24.5136 10.8322C24.5136 11.0705 24.5136 11.3327 24.5136 11.5711C24.5136 18.1496 22.3126 21.4151 20.7204 21.6534Z" fill="url(#paint0_linear_228_4672)"/>
<defs>
<linearGradient id="paint0_linear_228_4672" x1="13.4109" y1="23.482" x2="13.4109" y2="6.39111" gradientUnits="userSpaceOnUse">
<stop stop-color="#00E0FF"/>
<stop offset="0.563" stop-color="#008EFF"/>
<stop offset="1" stop-color="#2309FF"/>
</linearGradient>
</defs>
</svg>
